<?xml version="1.0" encoding="UTF-8"?>
<svg width="997.52" height="361.82" version="1.1" xmlns="http://www.w3.org/2000/svg">
 <g transform="translate(-55.5 -1335.6)" fill="#fff">
  <path d="m249.14 1540.8v156.61h164.78l18.039-23.691 17.764 23.691h99.521v-36.26h22.373c19.411 0 28.391-5.8828 28.391-5.8828v42.143h65.729v-24.688l20.059 24.688h333.28c18.204-0.1566 33.945-10.801 33.945-10.801v-31.725c-4.7909 13.185-16.572 22.467-35.754 22.467h-62.48v-25.459h58.672c8.6812 0 12.439-4.6908 12.439-9.8359 0-4.9296-3.7464-9.9141-12.439-9.9141h-26.514c-23.046 0-35.879-14.041-35.879-35.121 0-18.802 11.753-36.934 45.998-36.934h55.957v-19.287h-601.89l-18.379 23.191-17.791-23.191zm20.059 19.287h95.662v26.229h-66.039v20.059h64.496v24.688h-64.496v20.83h66.039v25.459h-95.662zm98.266 0h36.936l28.398 36.691 28.496-36.691h35.488l-47.061 58.631 46.664 58.633h-36.928l-27.576-36.115-26.904 36.115h-36.404l46.578-57.91zm251.98 0h65.238c21.616 0 40.984 13.367 40.984 38.043 0 21.095-16.329 34.682-32.16 36.018l38.574 43.203h-35.826l-35.15-41.66h-12.344v41.66h-29.316zm118.5 0h95.662v26.229h-66.039v20.059h64.188v24.688h-64.188v20.83h66.039v25.459h-95.662zm151.52 0h57.088l-12.344 26.383h-49.373c-9.4382 0-12.344 4.9546-12.344 9.6835 0 4.8612 3.5906 10.221 10.801 10.221h27.773c25.69 0 36.838 14.573 36.838 33.656 0 20.516-12.424 37.32-38.238 37.32h-62.479v-25.459h58.67c8.6811 0 12.441-4.6908 12.441-9.8359 0-4.9296-3.7485-9.9141-12.441-9.9141h-26.512c-23.046 0-35.881-14.041-35.881-35.121 0-18.802 11.755-36.934 46-36.934zm-389.6 0.02h64.756c26.571 0 42.094 17.125 42.094 39.441 0 26.939-19.791 40.791-45.902 40.791h-30.859v37.031h-30.088zm553.15 2.4023-11.211 23.961h-49.375c-9.4381 0-12.344 4.9547-12.344 9.6835 0 4.8612 3.5906 10.221 10.801 10.221h27.773c18.796 0 29.799 7.8068 34.356 19.467zm-404.25 23.807v24.688h33.945c5.8759 0 13.453-4.5532 13.453-12.344 0-6.0554-5.848-12.344-13.887-12.344zm-118.81 0.3105v27h32.402c8.5623 0 14.561-5.6738 14.561-13.5 0-8.3307-6.0294-13.5-14.465-13.5z"/>
  <path d="m92.893 1335.6-37.393 87.176v69.434h46.199l9.8613-24.688h26.486l9.9336 24.688h375.8v-24.688l20.059 24.688h101.06v-17.381s17.149 17.381 43.975 17.381h67.029l9.7773-24.688h26.57l9.9395 24.688h98.84v-27.773l17.742 27.773h67.891v-156.61h-67.891v27.684l-18.514-27.684h-67.273v48.604l-20.855-48.195-117.08-0.4082c-31.176 0-50.146 17.744-50.146 17.744v-17.744h-360.86l-12.246 35.295-12.633-35.295h-80.389v48.832l-21.221-48.832zm105.33 19.287 46.662 0.1738 27.141 75.604 26.488-75.777h46.289v117.26h-29.316v-86.404l-31.074 86.404h-25.711l-31.162-86.404v86.404h-29.316zm166.64 0h95.662v26.23h-66.037v20.059h64.494v24.686h-64.494v20.83h66.037v25.459h-95.662zm230.83 0h29.932v117.26h-29.932zm102.45 0h32.402v27.773h-33.588c-16.026 0-27.359 12.505-27.359 31.629 0 22.71 12.96 32.248 31.631 32.248h7.7148l-12.344 25.613h-6.4609c-31.262 0-50.242-24.63-50.242-58.15 0-34.348 18.768-59.113 58.246-59.113zm154.29 0h37.271l47.59 73.676v-73.676h29.316v117.26h-36.066l-48.795-75.604v75.604h-29.316zm-746.3 0.02h38.234l50.389 117.26h-33.561l-9.2578-23.48h-54.1l-9.3047 23.48h-32.836zm371.37 0h65.238c21.616 0 40.984 13.366 40.984 38.043 0 21.094-16.329 34.682-32.16 36.018l38.574 43.203h-35.826l-35.15-41.66h-12.344v41.66h-29.316zm282.89 0h38.236l50.387 117.26h-33.559l-9.2578-23.48h-54.1l-9.3066 23.48h-32.836zm-253.57 26.23v24.688h33.945c5.8759 0 13.453-4.5533 13.453-12.344 0-6.0554-5.848-12.344-13.887-12.344zm-382.03 1.0605-16.537 41.033h33.029zm654.26 0-16.539 41.033h33.029z"/>
 </g>
</svg>
