<?xml version="1.0" encoding="UTF-8"?>
<svg width="629.5" height="520" enable-background="new 0 0 1000 1000" version="1.1" viewBox="0 0 629.5 520" xml:space="preserve" xmlns="http://www.w3.org/2000/svg"><g fill="#fff">

<path d="m556.9 465.9c-0.3 0-0.49922 0.10156-0.69922 0.10156-1.4 0.9-4.2996 2.3996-6.5996 3.0996-0.6 2.9-1.9008 6.4992-2.8008 9.1992l-11.6 33.201c-1 2.9-3.3 4.5-6 4.5h-0.80078v2.7988h0.30078c2.6-0.1 5.1988-0.29883 7.7988-0.29883 2.9 0 5.9012 0.19883 8.7012 0.29883h0.29882v-2.7988h-1.0996c-2.4 0-5.0996-0.40117-5.0996-2.2012 0-1.2 0.79961-3.0996 1.5996-5.5996l2.2012-7.3008h16l2.6992 8.2012c0.79999 2.3 1.5004 4.2996 1.4004 5.0996 0 1.4-2.5012 1.8008-4.2012 1.8008h-1.0996v2.8984h0.30078c3.7-0.2 7.2988-0.29883 10.799-0.29883 3.5 0 6.7 0.19883 10 0.29883h0.4004v-2.5996l0.20117-0.19922h-0.70117c-2.3 0-3.6-0.80117-4.5-2.7012-0.9-2.1-1.7992-4.7984-2.6992-7.3984l-13.301-37.9c-0.2-0.6-0.49922-1.3008-0.69922-1.8008-0.2-0.4-0.60079-0.40039-0.80078-0.40039zm-5.6992 11 6.2988 19.4h-12.699z"/><path d="m573.4 337.4c-0.4 0-1.5004 0.6-2.9004 1.5-2.8 1.6-8.3992 4.0012-13.699 5.7012v2c5 1.5 7.0996 1.7004 7.0996 10.4v57.299c0 8.1-0.7004 15.901-1.9004 23.701l2.8008 1.3984 4-3.0996c3.4 1.5 8.7 4.7012 18.5 4.7012 19.1 0 31.801-17.5 31.801-34.9 0-14.5-9.3008-27.9-24.801-27.9-7.3 0-14.501 4.9996-19.801 9.5996v-48.6c0-1.1-0.29961-1.8008-1.0996-1.8008zm13.9 47.801c10.4 0 21.301 12 21.301 26.4 0 11.9-6.0008 25.9-20.301 25.9-9 0-13.699-8.5012-13.699-13.701v-32.299c3.7-3.1 7.7992-6.3008 12.699-6.3008z"/><path d="m177.5 506.9c-2.2 8.1-6.4 8.8-14.9 8.8-4.6 0-9.1 0-9.1-5.1v-17.2h9c5 0 5.6 3 5.9 7.2l1.6-0.4c-0.1-2.6-0.2-5.3-0.2-8s0.1-5.4 0.2-8.2h-1.6c-0.4 3.8-1.6 6.4-6 6.4h-8.9v-19.6h10.4c7.5 0 8.8 3.8 9.1 8.4l1.6-0.4c-0.1-2-0.2-4.7-0.2-7.1 0-1.2 0-2.4 0.1-3.5-4.9 0-12.3 0.3-18.2 0.3-6 0-13.3-0.3-17.7-0.3v1.5h0.7c2.6 0 5.7 0.5 5.7 4.5v38c0 4-3.1 4.4-5.7 4.5h-0.7v1.5c4.2 0 12.6-0.3 18.9-0.3 6.4 0 14.6 0.3 19.2 0.3 0.6-3.6 1.4-7.3 2.3-11z"/><path d="m620.9 506.5c-0.4 1.6-1.1 3.5-2.2 5.1-1.4 1.9-4 3.6-7.2 4-1.9 0.2-3.8 0.3-5.6 0.3-1.4 0-2.8-0.1-4.1-0.2-2.4-0.3-4.7-1.3-4.7-4.4v-37.4c0-4 2.5-4.2 5.3-4.2h1.5v-1.6c-3.6 0-7.1 0.3-10.7 0.3-3.7 0-7.4-0.3-11.2-0.3v1.6h0.7c2.6 0 5.8 0.4 5.8 4.4v37.2c0 4.7-3.2 5.2-5.8 5.2h-0.7v1.5c6.3 0 12.5-0.3 18.8-0.3s12.6 0.3 18.8 0.3c0.8-3.9 1.8-7.8 2.5-11.7z"/><path d="m621.9 466c-4.4 0-7.5996 3.2996-7.5996 7.5996s3.2996 7.5996 7.5996 7.5996c4.3 0 7.5996-3.3996 7.5996-7.5996 0-4.3-3.2996-7.5996-7.5996-7.5996zm0 1.3984c3.4-0.1 6 2.9012 6 6.2012 0 3.3-2.6 6.1992-6 6.1992-3.4 0-6.0996-2.8992-6.0996-6.1992s2.5996-6.2012 6.0996-6.2012z"/><path d="m527.9 470.5h1.4v-2.8h-0.3c-3 0-6 0.3-9 0.3-3.3 0-6.7-0.3-10.1-0.3h-0.4v2.8h1.9c2.1 0 6 0.7 6 6.5v26.6l-31.7-35.8c-2.5-0.1-4.6 0.2-6.7 0.2-2.7 0-5.5-0.3-8.3-0.3h-0.3v2.8h1.3c3.1 0 6.3 2.3 6.3 6.2v30.6c-0.1 5.8-1.5 8.8-6.2 8.9h-1.4v2.8h0.4c3.3 0 6.6-0.3 9.8-0.3 3.1 0 6.2 0.3 9.3 0.3h0.4v-2.8h-1.6c-5.4-0.1-6.4-1.8-6.5-8.2v-29.1l36.8 41 3 0.1h0.3l-0.1-0.3c-0.4-2.2-0.4-4.7-0.4-7.3v-33c0-8.6 3.1-8.8 6.1-8.9z"/><path d="m441.1 466.6c-15.2 0-27 11.8-27 27 0 15.8 11.898 26.299 27.398 26.299 15.6 0 27.701-11.2 27.701-28 0-15.6-12.5-25.299-28.1-25.299zm-0.10157 3.5c12 0 17.701 12.8 17.701 23.4 0 10.5-2.4004 22.898-16.4 22.898-11.8 0-17.699-12.399-17.699-25.299 0-9.7 3.6984-21 16.398-21z"/><path d="m412.6 467.7h-0.3c-3.4 0-7.8 0.3-11.4 0.3-3.5 0-7.9-0.3-10.7-0.3h-0.3v2.8h1.3c2.6 0 5 0.3 5 3.8v38c0 3.6-2.4 3.8-5 3.8h-1.3v2.8h0.3c2.8 0 7.1-0.3 10.7-0.3s7.9 0.3 11.4 0.3h0.3v-2.8h-1.3c-2.6 0-5-0.3-5.1-3.8v-38c0-3.5 2.4-3.8 5.1-3.8h1.3v-2.5z"/><path d="m425.4 441c8.8 0 23.9-3.6 29.4-7.1l3.1-19.5-3.1-0.8c-2.7 14-13.6 23-26.8 23-20.5 0-39.7-19.3-39.7-46.2 0-31.9 22.2-42.2 37.5-42.2 14.9 0 26 6.2 28.5 21.8h3.3l-1.3-19c-10.3-3.6-20.6-7.1-31.4-7.1-26.1 0-50.4 19.6-50.4 46.9 0.1 30 19.8 50.2 50.9 50.2z"/><path d="m387.8 465.7-2-0.3-0.3-0.1v0.4c-0.1 1.9-1.6 1.9-3.6 1.9h-37.8c-1.8 0-3.2 0-3.7-1.9l-0.1-0.2h-2.3v0.3c0 2.1-0.2 4.1-0.5 6.1-0.2 2.1-0.5 4.1-0.8 6.1v0.4h2.8v-0.3c1.2-5.3 1.1-6.2 6.4-6.3h11.6v38.4c-0.1 5.6-1.7 5.7-5.7 5.8h-1.7v2.8h0.4c2.8 0 7.9-0.3 12.2-0.3 3.9 0 9 0.3 11.8 0.3h0.3v-2.8h-1.7c-3.4-0.1-5.6-0.4-5.7-5.9v-38.2h11.6c4.6 0 4.8 3.9 5 6.7v0.4l2.5-0.9 0.2-0.1v-0.3c0-1.9 0-3.9 0.1-5.8 0.2-1.9 0.5-3.9 0.8-5.8z"/><path d="m320.4 465.9c-0.3 0-0.49922 0.10117-0.69922 0.20117-1.4 0.9-4.2996 2.3996-6.5996 3.0996-0.6 2.9-1.9004 6.4992-2.9004 9.1992l-11.5 33.201c-1.1 3-3.3 4.5-6 4.5h-0.70118v2.7988h0.30079c2.6-0.1 5.2008-0.29883 7.8008-0.29883 2.9 0 5.7992 0.19883 8.6992 0.29883h0.30078v-2.7988h-1.1016c-2.4 0-5.0996-0.40117-5.0996-2.2012 0-1.2 0.89961-3.0996 1.5996-5.5996l2.2012-7.2988h16l2.7988 8.1992c0.8 2.3 1.5004 4.2996 1.4004 5.0996 0 1.4-2.4992 1.8008-4.1992 1.8008h-1.0996v2.9004h0.29883c3.7-0.2 7.3008-0.30078 10.801-0.30078 3.4 0 6.7 0.20078 10 0.30078h0.29882v-2.6016l0.10157-0.29883h-0.70117c-2.3 0-3.7-0.80117-4.5-2.7012-0.9-2.1-1.7996-4.7984-2.5996-7.3984l-13.4-37.9c-0.2-0.6-0.39922-1.3008-0.69922-1.8008-0.2-0.4-0.60079-0.40039-0.80078-0.40039zm-5.6992 11 6.2988 19.4h-12.699z"/><path d="m182.2 467.7v2.9004h1.5996c2.3 0.1 4.8008-7.8e-4 4.8008 5.1992v36.801c0 2.4-2.2008 3.5996-4.8008 3.5996h-1.5996v2.8008h0.29882c3.6 0 7-0.30078 10.5-0.30078 4.1 0 8.3 0.30078 12.5 0.30078h0.30079v-2.8008h-1.5996c-3.3-0.1-5.4996-1e-5 -5.5996-5.5v-15.199h4.2988c4.7 8.3 9.4 15.999 15 23.299 2.5 0.1 4.8-0.19922 7-0.19922 2.4 0 4.6996 0.29883 7.0996 0.29883h0.30079v-2.5l0.0996-0.29883-0.29883-0.0996c-3.5-0.5-4.8008-1.2012-6.8008-4.2012l-12.199-18.199c5.6-2.3 9.8984-6.3004 9.8984-12.9 0-10.5-8.3996-13-17.6-13-3.9 0-7.2992 0.30078-11.699 0.30078-4.4 0-8.9012-0.30078-11.201-0.30078zm20.199 2.5996c6.6 0 10.9 4.3004 10.9 10.9 0 8.6-4.2 11.6-11.5 11.6h-3.8008v-22.199h0.30079c0.99999-0.1 1.9996-0.30078 4.0996-0.30078z"/><path d="m182.1 438.7c4.8 0 9.4 0.2 14.1 0.2v-3.4h-2.4c-3.7 0-6.6 0-6.6-4.4v-34.4c0-10.4-4-18.6-15.3-18.6-8.9 0-15.5 4.5-23.1 10v-8.6c0-1.1-0.4-1.3-0.8-1.3-6.4 2.8-11.8 4.5-17.6 6.4v2.5c6.2 2.5 7.7 3.8 7.7 8.8v35.3c0 4.4-2.7 4.4-6.4 4.4h-2.4v3.4c4.8-0.1 9.6-0.3 14.4-0.3s9.5 0.3 14.1 0.3v-3.4h-2.4c-3.7 0-6.7 0-6.7-4.4v-39.5c4.4-2.9 11.2-6.4 15.5-6.4 7.6 0 12.3 3.7 12.3 11.3v34.5c0 4.4-2.6 4.4-6.4 4.4h-2.4v3.4c4.8-0.1 9.6-0.2 14.4-0.2z"/><path d="m136.1 465.7-2.1-0.3-0.3-0.1v0.4c-0.1 1.9-1.6 1.9-3.6 1.9h-37.8c-1.9 0-3.2 0-3.7-1.8v-0.2h-2.3v0.3c0 2.1-0.1 4.1-0.4 6.1-0.2 2.1-0.6 4.1-0.9 6.1v0.4h2.8v-0.3c1.2-5.4 1.1-6.2 6.4-6.4h11.6v38.4c-0.1 5.6-1.7 5.7-5.7 5.7h-1.7v2.8h0.3c2.8 0 7.9-0.3 12.3-0.3 3.9 0 9 0.3 11.8 0.3h0.3v-2.8h-1.8c-3.5-0.1-5.6-0.4-5.7-5.9v-38.2h11.6c4.6 0 4.9 3.9 5.1 6.7v0.4l2.6-1 0.2-0.1v-0.1c0-1.9 0-3.9 0.1-5.8 0.2-1.9 0.5-3.9 0.8-5.8z"/><path d="m83.7 467.7h-0.3c-3 0-6 0.3-8.9 0.3-3.4 0-6.7-0.3-10.1-0.3h-0.3v2.8h1.9c2.1 0 6 0.7 6 6.5v26.7l-31.8-35.8c-2.5-0.1-4.5 0.2-6.7 0.2-2.7 0-5.5-0.3-8.3-0.3h-0.3v2.8h1.3c3.1 0 6.3 2.3 6.3 6.2v30.5c0 5.8-1.4 8.8-6.2 8.9h-1.3v2.8h0.3c3.3 0 6.6-0.3 9.9-0.3 3.1 0 6.2 0.3 9.3 0.3h0.3v-2.8h-1.6c-5.4-0.1-6.4-1.9-6.5-8.2v-29l36.8 40.9 3 0.1h0.4l-0.1-0.4c-0.3-2.2-0.4-4.7-0.4-7.2v-33c0.1-8.5 3.1-8.8 6.1-8.9h1.4v-2.5z"/><path d="m22.7 467.7h-0.3c-3.4 0-7.8 0.3-11.4 0.3-3.5 0-7.9-0.3-10.7-0.3h-0.3v2.8h1.3c2.6 0 5 0.3 5 3.8v38c0 3.6-2.4 3.8-5 3.8h-1.3v2.8h0.3c2.9 0 7.1-0.3 10.6-0.3 3.6 0 7.9 0.3 11.5 0.3h0.3v-2.8h-1.3c-2.6-0.1-5-0.3-5.1-3.8v-38c0-3.6 2.4-3.8 5.1-3.8h1.3v-2.5z"/><path d="m0.39958 346v3.5c6 0.1 12.301-0.70116 12.301 11.299v64.6c-0.4 9-4.3012 9.3016-12.201 10.102l-0.0996 3.3984c6-0.1 11.901-0.29883 17.801-0.29883 6.2 0 12.499 0.29883 19.299 0.29883 47.1 0 54.801-33.099 54.801-46.299 0-23.6-18.699-46.6-53.199-46.6-9.8 0-17.4 0.29883-23 0.29883-5.2 0-10.501 1e-3 -15.701-0.29883zm35.6 4.1992c25.7 0 41.701 18 41.701 42.9 0 19.9-9.4012 41.6-38.201 41.6-6.5 0-13.798-1.1996-13.898-11.6v-72.4c2.4-0.1 4.8984-0.5 10.398-0.5z"/><path d="m97 438.9c4.9-0.1 9.7-0.3 14.5-0.3s9.4 0.3 14 0.3v-3.4h-2.3c-3.7 0-6.7 0-6.7-4.4v-51.1c0-1.1-0.3-1.9-0.9-1.9-0.7 0-1.5 0.1-2.4 0.7-0.5 0.4-8 2.9-14.2 4.8v2.1c4.9 2.6 6.9 3.5 6.9 9.3v36.1c0 4.4-2.7 4.4-6.4 4.4h-2.5z"/><path d="m104.8 351c0 3.5 3.1 6.6 6.5 6.6 3.6 0 6.5-3.1 6.5-6.6 0-3.6-3.1-6.4-6.5-6.4-3.4-0.1-6.5 3-6.5 6.4z"/><path d="m222.5 378.1c-9.3 0-26.898 7.6988-26.898 33.799 0 8.5 4.2985 29 25.398 29 10.9 0 18.502-6.9 24.602-15l-1.9004-1.7988c-4.9 4.9-10.6 8.9004-18 8.9004-10.6 0-18.8-10.4-19.6-23-0.1-4.6-0.10078-6.6008 0.19922-7.8008h37.4l1.1992-0.80078c0.1-0.8 0.0996-1.5984 0.0996-2.3984-0.1-14.1-11.7-20.9-22.5-20.9zm-0.5 4.1992c7.5 0 11.602 5.5008 11.602 12.301 0 1.6-0.40118 3.2988-3.7012 3.2988h-23.199c1.6-9.6 7.1988-15.6 15.299-15.6z"/><path d="m268.8 431.1v-31.3c0-8 7.5-11 9.7-11 4.7 0 4.7 3.2 8.8 3.2 3.7 0 6.3-3.2 6.3-6.8 0-4.8-4.3-7-7.6-7-8.1 0-13.7 8.5-17 13.7h-0.3v-12c0-1.3-0.4-1.7-1.2-1.7-1.2 0-6.5 3.4-16.3 7.6v2c2 1.1 6.9 1.8 6.9 6v37.4c0 4.4-2.7 4.4-6.4 4.4h-3.6v3.4c4.8-0.1 10.4-0.2 15.8-0.2 5.7 0 11.3 0.1 18.6 0.2v-3.4h-7.4c-3.7-0.1-6.3-0.1-6.3-4.5z"/><path d="m326.9 427.2c0 4.7-2.9 9.5-10.8 9.5-9.7 0-15-7.5-16.8-16.3l-2.4 0.7 1.5 15.3c4.7 2.6 10.9 4.5 16.2 4.5 15.8 0 22.9-9.4 22.9-18.1 0-20.9-30.9-16.1-30.9-31.7 0-5.7 5.1-8.8 10.4-8.8 8.5 0 13.2 4.8 14.5 13.2h3.1l-0.9-13.6c-5.2-2.6-10.9-3.9-15.2-3.9-14.6 0-20.6 9.6-20.6 17 0 21.6 29 16.5 29 32.2z"/><path d="m471.5 357v74.1c0 4.4-2.7 4.4-6.4 4.4h-2.5v3.4c4.9-0.1 9.7-0.2 14.5-0.2s9.5 0.2 14 0.2v-3.4h-2.2c-3.7 0-6.7 0-6.7-4.4v-92c0-1.1-0.3-1.9-1.1-1.9-0.4 0-1.5 0.6-2.9 1.5-2.8 1.6-8.4 4-13.7 5.7v2.1c5 1.5 7 1.8 7 10.5z"/><path d="m275.3 0c-86 0-156.7 63.999-156.7 156.7 0 84.8 70.699 154.4 156.7 154h73.1c84.9 0.4 162.4-69.3 162.4-154 0-92.7-77.5-156.7-162.4-156.7zm0.30078 12.799c78.6 0 142.2 63.701 142.2 142.3 0 78.5-63.599 142.2-142.2 142.2-78.5 0-142.2-63.699-142.2-142.2 0-78.5 63.701-142.2 142.2-142.3z"/><path d="m509.7 418.3v-34.3c0-2.9 0-3.8-1.5-3.8-1.8 0-12.4 0.8-17.2 0.9v2.5c7.5 0.7 8 4 8 7.5v34.1c0 11.2 7.5 15.9 14.6 15.9 9.5 0 15.6-4.7 23.6-11.2v10.8l0.7 0.4c2.5-0.8 13.4-3.6 19.2-4.1v-2.8c-1.7 0-3.7 0.2-5.3 0.2-2.3 0-3.7-0.2-3.7-2.5v-49.1c0-1.5 0-2.4-1.1-2.4-1.3 0-8.8 1.1-20.7 1.8v2.4c4.7 1.3 11.2 2.8 11.2 5.4v35.7c-5.6 4.6-11.6 8.1-16.1 8.1-11.7 0-11.7-11.5-11.7-15.5z"/><path d="m618.1 469.4v0.40039c1 0 1.0996 0.2 1.0996 1v5.7012c0 0.6-0.19961 0.59922-1.0996 0.69922v0.40039h3.6992v-0.40039c-0.9-0.1-1.0996-0.0996-1.0996-0.59961v-2.5h0.79882c1.4 2 2.0012 3.5 2.7012 3.5h1.5v-0.30078c-0.4-0.3-1.1012-0.99883-1.7012-1.7988l-1.2988-1.8008c1.1-0.3 1.7988-1.1008 1.7988-2.3008 0-1.4-1.2-2-2.5-2zm2.5 0.60156h0.89843c0.7 0 1.5004 0.39922 1.4004 1.6992 0 1.2-0.4004 1.9004-1.4004 1.9004h-0.89843z"/><path d="m517.5 504 0.1 0.1z"/><path d="m185.5 155.1c0.1 38.4 24 71.1 57.8 84.1v-168.3c-33.8 13-57.7 45.8-57.8 84.2z"/><path d="m307.9 239.2c33.8-13 57.8-45.7 57.9-84.2-0.1-38.4-24.1-71.2-57.9-84.2z"/><path d="m71.9 504 0.1 0.1z"/><path d="m292.2 468.3c-2.9 0-5.7 0.3-8.6 0.3-3.3 0-6.5-0.3-9.8-0.3v1.6h1.3c2.2 0 6.6 1 6.6 7.1l-0.1 27.4-0.3 0.3-32.2-36.4c-2.2 0-4.3 0.3-6.4 0.3-2.7 0-5.4-0.3-8-0.3v1.5h0.6c3.4 0 6.9 2.6 6.9 6.8v30.5c0 5.8-1.6 9.5-6.8 9.5h-0.7v1.5c3.1 0 6.3-0.3 9.5-0.3 3.1 0 6.1 0.3 9 0.3v-1.4h-0.9c-5.7 0-7.1-2.5-7.2-8.8v-30.7l37.6 42.1h2.4c-0.3-2.2-0.4-4.6-0.4-7v-33c0-8.7 3.6-9.5 6.8-9.5h0.8z"/><path d="m281 504 0.1 0.1z"/>
</g></svg>
