<?xml version="1.0" encoding="UTF-8"?>
<svg width="126.85" height="21.092" version="1.1" viewBox="0 0 220.57 36.083" xml:space="preserve" xmlns="http://www.w3.org/2000/svg"><g transform="translate(0 -.012677)"><g fill="#fff"><g><path d="m17.947 26.722c-2.1391 1.9316-4.9179 2.7744-9.3168 2.7744h-1.8272v-23.08h1.8272c4.399 0 7.0683 0.78712 9.3168 2.8228 2.3545 2.0966 3.771 5.3452 3.771 8.689 0 3.3505-1.4165 6.6986-3.771 8.7944zm-7.9531-26.22h-9.9937v34.903h9.9409c5.2862 0 9.1031-1.2471 12.454-4.0292 3.9814-3.295 6.3359-8.2612 6.3359-13.398 0-10.3-7.6958-17.476-18.737-17.476" clip-path="url(#clipPath2040)"/><path d="m31.863 35.405h6.8081v-34.903h-6.8081z" clip-path="url(#clipPath2034)"/><path d="m55.318 13.896c-4.0854-1.5118-5.2851-2.5089-5.2851-4.3946 0-2.1981 2.1372-3.8686 5.0718-3.8686 2.04 0 3.7164 0.83788 5.4902 2.8268l3.562-4.6646c-2.9272-2.5605-6.4296-3.8696-10.256-3.8696-6.1752 0-10.886 4.2886-10.886 10.001 0 4.8086 2.1934 7.2705 8.5875 9.5718 2.665 0.94 4.0214 1.5664 4.706 1.9878 1.3604 0.88825 2.0415 2.1456 2.0415 3.6114 0 2.8281-2.2485 4.9234-5.2861 4.9234-3.2471 0-5.8628-1.624-7.4301-4.6552l-4.3985 4.2349c3.1368 4.6044 6.9039 6.645 12.084 6.645 7.0752 0 12.038-4.7041 12.038-11.461 0-5.5454-2.2945-8.0556-10.039-10.888" clip-path="url(#clipPath2028)"/><path d="m67.505 17.978c0 10.259 8.0558 18.214 18.423 18.214 2.9306 0 5.4404-0.57625 8.5356-2.0342v-8.0141c-2.7216 2.7241-5.1322 3.8228-8.2192 3.8228-6.8564 0-11.723-4.9711-11.723-12.039 0-6.7012 5.0205-11.987 11.407-11.987 3.2471 0 5.7051 1.1588 8.5356 3.9272v-8.0102c-2.9882-1.5161-5.4458-2.144-8.375-2.144-10.314 0-18.584 8.1161-18.584 18.265" clip-path="url(#clipPath2022)"/><path d="m148.44 23.946-9.3075-23.444h-7.4375l14.811 35.798h3.6638l15.079-35.798h-7.38l-9.4288 23.444" clip-path="url(#clipPath2016)"/><path d="m168.33 35.405h19.308v-5.9088h-12.505v-9.4214h12.044v-5.9121h-12.044v-7.747h12.505v-5.9136h-19.308v34.903" clip-path="url(#clipPath2010)"/><path d="m200.94 16.571h-1.9888v-10.571h2.0962c4.24 0 6.545 1.7764 6.545 5.1732 0 3.5089-2.305 5.398-6.6525 5.398zm13.659-5.7646c0-6.5342-4.5012-10.304-12.352-10.304h-10.095v34.903h6.8v-14.021h0.8875l9.4238 14.021h8.3725l-10.988-14.704c5.1275-1.0425 7.9512-4.5502 7.9512-9.8945" clip-path="url(#clipPath2004)"/><path d="m217.65 2.2325h-0.12375v-0.80175h0.13125c0.3625 0 0.55 0.13038 0.55 0.3945 0 0.2715-0.19 0.40725-0.5575 0.40725zm1.29-0.4185c0-0.61175-0.42125-0.94625-1.1612-0.94625h-0.985v3.0679h0.7325v-1.1899l0.85875 1.1899h0.89375l-1.0088-1.2651c0.43125-0.11625 0.67-0.43062 0.67-0.8565" clip-path="url(#clipPath1998)"/><path d="m217.92 4.5924c-1.1725 0-2.1312-0.97562-2.1312-2.1929 0-1.2216 0.94625-2.1968 2.1312-2.1968 1.1662 0 2.1175 0.9975 2.1175 2.1968 0 1.207-0.95125 2.1929-2.1175 2.1929zm0.01-4.8711c-1.49 0-2.6725 1.189-2.6725 2.6744 0 1.4844 1.1962 2.6748 2.6725 2.6748 1.4512 0 2.64-1.2031 2.64-2.6748 0-1.4644-1.1888-2.6744-2.64-2.6744" clip-path="url(#clipPath1992)"/></g><ellipse cx="114.93" cy="18.148" rx="18.241" ry="18.24"/></g></g><defs><clipPath id="clipPath1992"><path d="m-0.25391 59.384h220.82v-59.875h-220.82z" stroke-width=".125"/></clipPath><clipPath id="clipPath1998"><path d="m-0.25391 59.384h220.82v-59.875h-220.82z" stroke-width=".125"/></clipPath><clipPath id="clipPath2004"><path d="m-0.25391 59.384h220.82v-59.875h-220.82z" stroke-width=".125"/></clipPath><clipPath id="clipPath2010"><path d="m-0.25391 59.384h220.82v-59.875h-220.82z" stroke-width=".125"/></clipPath><clipPath id="clipPath2016"><path d="m-0.25391 59.384h220.82v-59.875h-220.82z" stroke-width=".125"/></clipPath><clipPath id="clipPath2022"><path d="m-0.25391 59.384h220.82v-59.875h-220.82z" stroke-width=".125"/></clipPath><clipPath id="clipPath2028"><path d="m-0.25391 59.384h220.82v-59.875h-220.82z" stroke-width=".125"/></clipPath><clipPath id="clipPath2034"><path d="m-0.25391 59.384h220.82v-59.875h-220.82z" stroke-width=".125"/></clipPath><clipPath id="clipPath2040"><path d="m-0.25391 59.384h220.82v-59.875h-220.82z" stroke-width=".125"/></clipPath></defs></svg>
