<?xml version="1.0" encoding="UTF-8"?>
<svg width="265.03" height="198.91" version="1.1" viewBox="0 0 265.03 198.91" xml:space="preserve" xmlns="http://www.w3.org/2000/svg"><style type="text/css">
	.st0{fill:#FFFFFF;}
	.st1{fill:url(#SVGID_1_);}
	.st2{fill:url(#SVGID_2_);}
	.st3{fill:url(#SVGID_3_);}
	.st4{fill:url(#SVGID_4_);}
	.st5{fill:url(#SVGID_5_);}
</style><g transform="translate(-17.394 -16.483)" fill="#fff" stroke-width="1.8215"><path class="st1" d="m217.03 137.25h19.126c0.54646 0 1.8215-0.18215 2.368-0.18215 3.643-0.72861 6.7396-4.0073 6.7396-8.5611 0-4.3716-3.0966-7.6504-6.7396-8.5611-0.54645-0.18215-1.6394-0.18215-2.368-0.18215h-19.126z"/><path class="st2" d="m233.97 16.483c-18.215 0-33.152 14.754-33.152 33.152v34.427h46.813c1.0929 0 2.368 0 3.2787 0.18215 10.565 0.54646 18.397 6.011 18.397 15.483 0 7.4682-5.2824 13.844-15.119 15.119v0.36431c10.747 0.7286 18.944 6.7396 18.944 16.029 0 10.018-9.1076 16.576-21.13 16.576h-51.367v67.396h48.634c18.215 0 33.152-14.754 33.152-33.152v-165.58z"/><path class="st3" d="m242.9 101.91c0-4.3716-3.0966-7.2861-6.7396-7.8325-0.3643 0-1.2751-0.18215-1.8215-0.18215h-17.304v16.029h17.304c0.54645 0 1.6394 0 1.8215-0.18215 3.643-0.54646 6.7396-3.4609 6.7396-7.8325z"/><path class="st4" d="m50.727 16.483c-18.215 0-33.152 14.754-33.152 33.152v81.786c9.2897 4.5538 18.944 7.4682 28.598 7.4682 11.476 0 17.669-6.9218 17.669-16.394v-38.616h28.416v38.434c0 14.936-9.2897 27.141-40.802 27.141-19.126 0-34.062-4.1895-34.062-4.1895v69.764h48.634c18.215 0 33.152-14.754 33.152-33.152v-165.39z"/><path class="st5" d="m142.35 16.483c-18.215 0-33.152 14.754-33.152 33.152v43.352c8.379-7.1039 22.951-11.658 46.449-10.565 12.568 0.54646 26.048 4.0073 26.048 4.0073v14.026c-6.7396-3.4609-14.754-6.5575-25.137-7.2861-17.851-1.2751-28.598 7.4682-28.598 22.769 0 15.483 10.747 24.226 28.598 22.769 10.383-0.7286 18.397-4.0073 25.137-7.2861v14.026s-13.297 3.4609-26.048 4.0073c-23.498 1.0929-38.07-3.4609-46.449-10.565v76.504h48.634c18.215 0 33.152-14.754 33.152-33.152v-165.76z"/></g></svg>
