<?xml version="1.0" encoding="UTF-8"?>
<svg width="155.3" height="120.4" version="1.1" viewBox="0 0 155.3 120.4" xml:space="preserve" xmlns="http://www.w3.org/2000/svg"><title>Mastercard Maestro logo</title><g transform="translate(.12022 .026611)" fill="#fff"><path transform="translate(-434.41,-451.82)" d="m481.33 571.85v-8a4.73 4.73 0 0 0-5-5.05 4.93 4.93 0 0 0-4.47 2.26 4.67 4.67 0 0 0-4.2-2.26 4.21 4.21 0 0 0-3.72 1.89v-1.57h-2.77v12.72h2.83v-7a3 3 0 0 1 3.11-3.38c1.84 0 2.77 1.2 2.77 3.35v7.08h2.79v-7a3 3 0 0 1 3.11-3.38c1.89 0 2.79 1.2 2.79 3.35v7.08zm15.59-6.36v-6.36h-2.77v1.54a4.82 4.82 0 0 0-4-1.86 6.69 6.69 0 0 0 0 13.36 4.82 4.82 0 0 0 4-1.86v1.54h2.77zm-10.3 0a3.81 3.81 0 1 1 0 0.31q-0.01-0.16 0-0.31zm69.5-6.69a7.17 7.17 0 0 1 2.73 0.51 6.66 6.66 0 0 1 2.17 1.41 6.44 6.44 0 0 1 1.43 2.12 7.06 7.06 0 0 1 0 5.31 6.44 6.44 0 0 1-1.43 2.12 6.65 6.65 0 0 1-2.17 1.41 7.53 7.53 0 0 1-5.46 0 6.58 6.58 0 0 1-2.16-1.41 6.5 6.5 0 0 1-1.43-2.12 7.07 7.07 0 0 1 0-5.31 6.51 6.51 0 0 1 1.43-2.12 6.59 6.59 0 0 1 2.16-1.41 7.17 7.17 0 0 1 2.73-0.52zm0 2.62a4.13 4.13 0 0 0-1.58 0.3 3.74 3.74 0 0 0-1.26 0.84 3.9 3.9 0 0 0-0.84 1.29 4.63 4.63 0 0 0 0 3.31 3.89 3.89 0 0 0 0.84 1.29 3.74 3.74 0 0 0 1.26 0.84 4.33 4.33 0 0 0 3.16 0 3.81 3.81 0 0 0 1.27-0.84 3.86 3.86 0 0 0 0.84-1.29 4.63 4.63 0 0 0 0-3.31 3.86 3.86 0 0 0-0.84-1.29 3.81 3.81 0 0 0-1.27-0.84 4.13 4.13 0 0 0-1.58-0.31zm-44.12 4.07c0-4-2.47-6.68-6-6.68a6.6807 6.6807 0 0 0 0.19 13.36 7.73 7.73 0 0 0 5.21-1.78l-1.36-2a6.06 6.06 0 0 1-3.7 1.33 3.53 3.53 0 0 1-3.8-3.11h9.44c-0.04-0.4 0.02-0.75 0.02-1.12zm-9.47-1.12a3.27 3.27 0 0 1 3.38-3.09 3.16 3.16 0 0 1 3.22 3.09zm21.12-2a8.2 8.2 0 0 0-4-1.09c-1.52 0-2.42 0.56-2.42 1.49s1 1.09 2.15 1.25l1.3 0.19c2.77 0.4 4.44 1.57 4.44 3.8 0 2.42-2.13 4.15-5.8 4.15a9.17 9.17 0 0 1-5.51-1.65l1.3-2.15a6.78 6.78 0 0 0 4.23 1.33c1.89 0 2.9-0.56 2.9-1.54 0-0.72-0.72-1.12-2.23-1.33l-1.3-0.19c-2.85-0.4-4.39-1.68-4.39-3.75 0-2.53 2.07-4.07 5.29-4.07a9.51 9.51 0 0 1 5.19 1.33zm13.29-0.72h-4.52v5.75c0 1.28 0.45 2.13 1.84 2.13a5.11 5.11 0 0 0 2.45-0.72l0.8 2.37a6.5 6.5 0 0 1-3.46 1c-3.27 0-4.42-1.76-4.42-4.71v-5.8h-2.63v-2.53h2.58v-3.86h2.79v3.86h4.52zm9.58-2.85a5.91 5.91 0 0 1 2 0.35l-0.85 2.61a4.51 4.51 0 0 0-1.73-0.32c-1.81 0-2.71 1.17-2.71 3.27v7.13h-2.83v-12.71h2.74v1.54a3.75 3.75 0 0 1 3.35-1.86z"/><g transform="matrix(1.2928 0 0 1.2928 -34.943 143.94)" stroke-width=".26814"><path d="m147.06-74.273c0-20.432-16.651-37.083-37.137-37.083-7.2933 0-14.452 2.1987-20.512 6.1939 19.333 15.9 19.627 45.985 0 61.805 6.0598 4.022 13.273 6.1939 20.512 6.1939 20.485 0.02681 37.137-16.598 37.137-37.11z"/><path d="m145.88-52.688h-0.37539l-0.42901 0.93847-0.42902-0.93847h-0.37539v1.4479h0.21451v-1.0994l0.42902 0.93847h0.29495l0.37538-0.93847v1.0994h0.29495z"/><path d="m143.25-52.447v1.2334h0.21451v-1.2334h0.50946v-0.21451h-1.2334v0.21451z"/><path d="m86.998-45.1c18.903-14.747 18.823-43.491 0-58.319-18.823 14.828-18.903 43.599 0 58.319z"/><path d="m26.935-74.273c0 20.512 16.651 37.137 37.137 37.137 7.2933 0 14.452-2.1987 20.512-6.1939-19.547-15.9-19.413-45.905 0-61.805-6.0598-4.022-13.219-6.1939-20.512-6.1939-20.485-0.0268-37.137 16.624-37.137 37.056z"/></g></g></svg>
