<?xml version="1.0" encoding="UTF-8"?>
<svg width="448" height="347.52" version="1.1" viewBox="0 0 448 347.52" xmlns="http://www.w3.org/2000/svg">
 <g fill="#fff">
  <path d="m448 138.3c0-76.2-62.1-138.3-138.5-138.3-27.2 0-53.9 8.2-76.5 23.1 72.1 59.3 73.2 171.5 0 230.5 22.6 15 49.5 23.1 76.5 23.1 76.4 0.1 138.5-61.9 138.5-138.4z"/>
  <path d="m443.6 218.8h-1.4l-1.6 3.5-1.6-3.5h-1.4v5.4h0.8v-4.1l1.6 3.5h1.1l1.4-3.5v4.1h1.1z"/>
  <path d="m440.4 343.5c0-0.5 0-1.1-0.3-1.6-0.3-0.3-0.5-0.8-0.8-1.1s-0.8-0.5-1.1-0.8c-0.5 0-1.1-0.3-1.6-0.3-0.3 0-0.8 0.3-1.4 0.3-0.5 0.3-0.8 0.5-1.1 0.8-0.5 0.3-0.8 0.8-0.8 1.1-0.3 0.5-0.3 1.1-0.3 1.6 0 0.3 0 0.8 0.3 1.4 0 0.3 0.3 0.8 0.8 1.1 0.3 0.3 0.5 0.5 1.1 0.8 0.5 0.3 1.1 0.3 1.4 0.3 0.5 0 1.1 0 1.6-0.3 0.3-0.3 0.8-0.5 1.1-0.8s0.5-0.8 0.8-1.1c0.3-0.6 0.3-1.1 0.3-1.4z"/>
  <path d="m433.8 219.7v4.6h0.8v-4.6h1.9v-0.8h-4.6v0.8z"/>
  <path d="m418.3 294.8v19.301c-8.2-10.9-29.9-5.0996-29.9 13.9 0 19.4 22.5 24.598 29.9 13.898v4.6016h7.8984v-51.701zm-10.602 21.5c6.6 0 11.201 5.2012 11.201 11.701 0 6.8-4.6012 11.699-11.201 11.699-6.8 0-11.199-5.1992-11.199-11.699s4.3992-11.701 11.199-11.701z"/>
  <path d="m385.9 309.7c-2.4-1.2-11-2.9-15.2 4.4v-4.4h-7.9v36.7h7.9v-20.7c0-11 9-10.3 12.8-8.4z"/>
  <path d="m332.14 308.66c-8.7411 0.17694-18.043 7.066-18.043 19.338 0 19.2 22.4 24.698 29.9 13.898v4.6016h8.1992v-36.801h-8.1992v4.4004c-2.8531-3.7812-7.2787-5.5302-11.857-5.4375zm1.2578 7.6367c6.8 0 11.199 5.2012 11.199 11.701 0 6.8-4.3992 11.699-11.199 11.699s-10.9-5.1992-10.9-11.699 4.1004-11.701 10.9-11.701z"/>
  <path d="m285.5 328c0-11.4 11.6-15.1 20.7-8.4l3.8-6.5c-11.6-9.1-32.7-4.1-32.7 15 0 19.8 22.4 23.8 32.7 15l-3.8-6.5c-9.2 6.5-20.7 2.6-20.7-8.6z"/>
  <path d="m274.9 309.7c-4.6-2-11.6-1.8-15.2 4.4v-4.4h-8.2v36.7h8.2v-20.7c0-11.6 9.5-10.1 12.8-8.4z"/>
  <path d="m225.9 308.6c-10.6 0-18.201 7.8988-18.201 19.299 0 20.5 22.601 23.901 33.801 14.201l-3.8008-6c-7.8 6.4-19.598 5.7996-21.898-4.9004h27.5c0-16.2-7.4004-22.6-17.4-22.6zm-0.30078 7.4004c5.2 0 8.6996 2.9992 9.5996 8.6992h-19.1c0.8-5.2 4.1-8.6992 9.5-8.6992z"/>
  <path d="m202.5 344.6-2.2-6.8c-3.8 2.1-12.2 4.4-12.2-4.1v-16.6h13.1v-7.4h-13.1v-11.2h-8.2v11.2h-7.6v7.3h7.6v16.7c0 17.6 17.3 14.4 22.6 10.9z"/>
  <path d="m167.1 335.3c0-15-22.9-8.2-22.9-15.2 0-5.7 11.9-4.8 18.5-1.1l3.3-6.5c-9.4-6.1-30.2-6-30.2 8.2 0 14.3 22.9 8.3 22.9 15 0 6.3-13.5 5.8-20.7 0.8l-3.5 6.3c11.2 7.6 32.6 6 32.6-7.5z"/>
  <path d="m107 308.7c-10.3 0-18.199 8.2008-18.199 19.301 0 11.2 7.8992 19.299 18.199 19.299 5.2 0 8.9992-1.9004 11.699-5.4004v4.6016h7.9004v-36.801h-7.9004v4.4004c-2.7-3.3-6.4992-5.4004-11.699-5.4004zm1.0996 7.5996c6.5 0 10.8 5.2012 10.9 11.701 0 6.8-4.4004 11.699-10.9 11.699-7.1 0-11.199-5.1992-11.199-11.699s4.0992-11.701 11.199-11.701z"/>
  <path d="m81.7 323.4c0-8.7-5.7-14.4-14.7-14.7-4.6 0-9.5 1.4-12.8 6.5-2.4-4.1-6.5-6.5-12.2-6.5-3.8 0-7.6 1.4-10.6 5.4v-4.4h-8.2v36.7h8.2c0-18.9-2.5-30.2 9-30.2 10.2 0 8.2 10.2 8.2 30.2h7.9c0-18.3-2.5-30.2 9-30.2 10.2 0 8.2 10 8.2 30.2h8.2v-23z"/>
  <path d="m224 247.1c70.5-55 70.2-162.2 0-217.5-70.2 55.3-70.5 162.6 0 217.5z"/>
  <path d="m0 138.3c0 76.5 62.1 138.5 138.5 138.5 27.2 0 53.9-8.2 76.5-23.1-72.9-59.3-72.4-171.2 0-230.5-22.6-15-49.3-23.1-76.5-23.1-76.4-0.1-138.5 62-138.5 138.2z"/>
  <path d="m437.1 343.8c0.5 0 0.5-0.3 0.8-0.3 0.3-0.3 0.3-0.5 0.3-0.8s0-0.5-0.3-0.8c-0.3 0-0.5-0.3-1.1-0.3h-1.6v3.5h0.8v-1.4h0.3l1.1 1.4h0.8z"/>
  <path d="m439.3 342.4c0 0.3 0.3 0.5 0.3 1.1 0 0.3-0.3 0.5-0.3 1.1-0.3 0.3-0.3 0.5-0.5 0.8-0.3 0.3-0.5 0.5-1.1 0.5-0.3 0.3-0.5 0.3-1.1 0.3-0.3 0-0.5 0-1.1-0.3-0.3 0-0.5-0.3-0.8-0.5-0.3-0.3-0.5-0.5-0.5-0.8-0.3-0.5-0.3-0.8-0.3-1.1 0-0.5 0-0.8 0.3-1.1 0-0.5 0.3-0.8 0.5-1.1 0.3-0.3 0.5-0.3 0.8-0.5 0.5-0.3 0.8-0.3 1.1-0.3 0.5 0 0.8 0 1.1 0.3 0.5 0.3 0.8 0.3 1.1 0.5s0.2 0.6 0.5 1.1z"/>
 </g>
</svg>
