<?xml version="1.0" encoding="UTF-8"?>
<svg width="7086.6pt" height="3263.3pt" version="1.1" viewBox="0 0 7086.6 3263.3" xmlns="http://www.w3.org/2000/svg">
 <g fill="#fff" fill-rule="evenodd">
  <path d="m6495.2 524.76c-98.812 0-207.8 55.098-251.27 154.09l-461.89 1058.8-166.37-1058.8c-19.566-98.988-86.824-154.09-193.28-154.09h-585.14l500.48 1758.4c9.2148 33.719 10.961 71.109 4.2148 110.43-26.191 146.73-166.37 265.78-313.16 265.78h-327.68c-83.215 0-138.01 51.539-164.8 168.23l-72.797 435.76h577.07c301.06 0 654.63-151.25 890.48-569.49l1155.5-2169.1z"/>
  <path d="m814.86 1.9e-5c172.81 0 256.32 68.941 225.91 242.18l-49.793 282.21h397.04l-87.488 495.79h-397.22l-108.2 613.86c-37.394 213.87 174.31 242.36 295.77 242.36 24.203 0 44.312-0.543 58.703-1.3867l-97.121 552.87c-29.984 3.1914-60.875 7.3437-126.27 7.3437-301.43 0-871.63-80.742-759.52-716.83l122.77-698.22h-289.44l87.125-495.79h286.61l92.246-524.39z"/>
  <path d="m4151.3 547.11-102 578.04c125.78 64.25 211.95 194.73 211.95 345.44 0 198.7-148.96 361.51-340.74 384.94l-101.94 577.92c18 1.1445 36.305 1.7461 54.547 1.7461 533.06 0 964.79-432.02 964.79-964.6 0-435.46-289.14-803.89-686.6-923.48"/>
  <path d="m3697.2 1816.1c-125.66-63.887-212.01-194.97-212.01-345.5 0-197.44 149.27-361.52 340.98-384.52l101.82-577.98c-18.121-1.1445-36.547-1.9883-54.668-1.9883-532.64 0-964.61 432.32-964.61 964.48 0 435.64 289.26 804.32 686.72 923.9z"/>
  <path d="m1617.9 524.76h341.16c172.87 0 256.02 69.066 225.56 242.36l-37.332 209.66c127.11-258.01 402.82-470.86 685.64-470.86 37.09 0 72.797 7.3437 72.797 7.3437l-110.25 625.12s-49.492-11.5-126.75-11.5c-150.71 0-405.59 47.809-547.45 330.99-33.84 69.785-59.852 154.68-77.855 256.98l-123.44 702.32h-635.54z"/>
  <path d="m7086.6 2505.3c0 56.422-19.992 104.65-59.855 144.21-39.441 39.68-87.488 60.031-144.21 60.031-56.121 0-104.17-20.352-144.21-60.031-39.738-39.562-59.789-87.789-59.789-144.21 0-56.238 20.051-104.35 59.789-144.33 40.043-39.621 88.09-59.609 144.21-59.609 56.719 0 104.77 19.988 144.21 59.609 39.863 39.98 59.855 88.09 59.855 144.33m-32.035 0c0 48.23-16.859 89.234-50.578 123.02-33.359 34.02-74.242 50.938-121.45 50.938-47.086 0-87.492-16.918-121.14-50.938-33.238-33.781-49.801-74.785-49.801-123.02 0-48.047 16.562-88.934 49.801-122.89 33.652-34.137 74.059-51.059 121.14-51.059 47.207 0 88.09 16.922 121.45 51.059 33.719 33.961 50.578 74.848 50.578 122.89m-86.227 111.7h-36.246l-51.242-91.281h-33.719v91.281h-30.891v-223.69h75.93c19.57 0 36.25 6.6797 49.918 19.328 13.543 12.824 20.77 28.781 20.77 47.625 0 31.07-16.254 51.664-48.227 61.418zm-37.453-156.73c0-11.199-3.7305-20.594-11.801-28.238-7.8867-7.5859-17.941-11.199-30.344-11.199h-41.609v78.457h41.609c12.402 0 22.457-3.9141 30.344-10.961 8.0703-7.4648 11.801-16.555 11.801-28.059"/>
 </g>
</svg>
