<?xml version="1.0" encoding="UTF-8"?>
<svg width="36.1" height="22.088" version="1.1" viewBox="0 0 36.1 22.088" xml:space="preserve" xmlns="http://www.w3.org/2000/svg">
<path d="m23.438 8.161h-0.988l0.302-1.467h0.838c0.274 0 0.474 0.039 0.599 0.121 0.127 0.081 0.189 0.209 0.189 0.386 0 0.035-6e-3 0.07-8e-3 0.106-8e-3 0.038-0.012 0.08-0.021 0.125-0.054 0.248-0.152 0.431-0.3 0.55-0.151 0.119-0.354 0.179-0.611 0.179zm-7.912 2.075c0.236 0 0.427-0.082 0.577-0.245 0.15-0.162 0.256-0.408 0.322-0.734 0.01-0.051 0.018-0.104 0.023-0.158 4e-3 -0.052 7e-3 -0.101 7e-3 -0.146 0-0.189-0.048-0.337-0.146-0.442-0.097-0.105-0.234-0.158-0.412-0.158-0.235 0-0.426 0.083-0.576 0.248-0.151 0.166-0.258 0.415-0.326 0.748-9e-3 0.051-0.017 0.103-0.023 0.152-5e-3 0.051-7e-3 0.099-6e-3 0.143 0 0.189 0.049 0.335 0.147 0.438 0.096 0.103 0.233 0.154 0.413 0.154zm10.669 0.038c0.273 0.087 0.625-0.218 0.78-0.681 0.159-0.463 0.062-0.909-0.213-0.994-0.271-0.086-0.624 0.217-0.778 0.681-0.162 0.464-0.063 0.91 0.211 0.994zm-7.519 4.146h1.38c0.113 0.016 0.177-0.029 0.185-0.135l0.094-0.336h-1.53zm4.248 1.985h0.771l0.197-0.698h-0.771zm0.314-1.084s0.5-0.246 0.84-0.267c0.101-0.37 0.199-0.694 0.199-0.694h-0.774zm0.387-1.393s0.449-0.173 0.838-0.222c0.086-0.321 0.197-0.697 0.197-0.697h-0.772zm-4.723-0.351s0.254-0.183 0.678-0.19c0.425-6e-3 0.909 0 0.909 0l0.123-0.449h-1.527zm17.143-11.435-4.027 17.818c-0.261 1.144-1.371 2.071-2.516 2.128h-8.945c-1.161-0.018-1.883-0.967-1.618-2.136l0.313-1.386h-0.702l-0.313 1.386c-0.265 1.168 0.456 2.118 1.618 2.136h-9.51c-1.16-0.018-1.883-0.967-1.617-2.136l0.935-4.136h-0.82l-0.935 4.136c-0.266 1.168 0.457 2.118 1.618 2.136h-7.862c-0.934-0.013-1.584-0.634-1.664-1.484v-0.33c8e-3 -0.104 0.022-0.211 0.047-0.319l4.028-17.819c0.27-1.181 1.782-2.136 2.962-2.136l7.814 2e-3c-1.173 0.024-2.65 0.969-2.915 2.134l-0.756 3.347h0.819l0.757-3.347c0.265-1.166 1.741-2.11 2.914-2.134 0.016-1e-3 0.031-2e-3 0.046-2e-3l6.054 3e-3h3.404c-7e-3 0-0.014 1e-3 -0.02 1e-3 -1.17 0.036-2.627 0.974-2.893 2.131l-0.757 3.347h0.702l0.757-3.347c0.265-1.157 1.722-2.095 2.892-2.131 6e-3 0 0.012-1e-3 0.021-1e-3h2e-3l8.515 2e-3c1.179-1e-3 1.921 0.957 1.652 2.137zm-27.705 6.97 0.717-3.458h-1.077l-0.71 3.418c-0.062 0.302-0.201 0.533-0.414 0.696-0.213 0.165-0.487 0.246-0.82 0.246-0.291 0-0.499-0.083-0.627-0.25-0.088-0.112-0.131-0.255-0.13-0.43-1e-3 -0.079 7e-3 -0.167 0.029-0.263l0.708-3.418h-1.083l-0.717 3.458c-0.035 0.168-0.052 0.325-0.052 0.471 0 0.352 0.103 0.644 0.308 0.873 0.296 0.323 0.76 0.484 1.394 0.484 0.673 0 1.223-0.158 1.648-0.472 0.429-0.319 0.706-0.768 0.826-1.355zm3.389-1.158c-0.146-0.188-0.378-0.282-0.7-0.282-0.355 0-0.656 0.132-0.905 0.397l-0.109 0.127 0.087-0.445h-0.765l-0.617 3.087h0.787l0.351-1.773c0.045-0.223 0.137-0.398 0.276-0.524 0.139-0.125 0.309-0.188 0.511-0.188 0.165 0 0.279 0.047 0.338 0.142 0.061 0.094 0.072 0.241 0.033 0.438l-0.381 1.906h0.787l0.42-2.103c0.069-0.334 0.03-0.593-0.113-0.782zm14.888 2.692 0.144 0.167 0.978 0.025 0.64-2.91-0.849 0.075-0.358 0.247c-0.375-0.293-0.718-0.475-1.378-0.168-0.901 0.417-1.654 3.62 0.823 2.564zm0.757 2.093c-0.115 0-0.171-0.043-0.164-0.135l-0.041-0.358h-0.974l0.033 0.786c0.014 0.226 0.153 0.328 0.426 0.313h0.715l0.176-0.606zm-6.509-1.901h1.031l0.368-1.808h1.192c0.479 0 0.896-0.146 1.25-0.435 0.351-0.291 0.578-0.673 0.676-1.149 0.02-0.087 0.032-0.171 0.043-0.253 7e-3 -0.083 0.012-0.161 0.012-0.229v-0.011c0-0.36-0.113-0.636-0.34-0.828-0.229-0.19-0.558-0.288-0.984-0.288h-2.223zm-3.373 0h0.786l0.352-1.773c0.044-0.223 0.136-0.398 0.275-0.524 0.14-0.125 0.31-0.188 0.512-0.188 0.164 0 0.275 0.047 0.338 0.142 0.061 0.094 0.07 0.241 0.031 0.438l-0.381 1.906h0.787l0.42-2.103c0.069-0.333 0.028-0.593-0.113-0.781-0.146-0.188-0.379-0.282-0.699-0.282-0.354 0-0.657 0.132-0.905 0.397l-0.107 0.127 0.087-0.445h-0.766zm-0.86 1.813 0.215-0.379h-1.029l-0.384 0.576c-0.043 0.09-0.134 0.135-0.271 0.135h-0.148l-0.167 0.606h0.765c0.251 0.015 0.459-0.104 0.628-0.358h1.468l0.157-0.58zm-2.896-4.899h-0.848l-0.663 3.085h0.846zm0.274-1.125h-0.856l-0.159 0.75h0.855zm0.141 3.116c1e-3 0.363 0.113 0.648 0.336 0.861 0.221 0.209 0.522 0.314 0.904 0.314 0.462 0 0.858-0.144 1.188-0.435 0.331-0.288 0.544-0.682 0.642-1.175 0.014-0.075 0.025-0.151 0.036-0.231 8e-3 -0.078 0.013-0.151 0.013-0.214 0-0.367-0.111-0.657-0.332-0.871-0.221-0.213-0.523-0.32-0.905-0.32-0.465 0-0.863 0.148-1.192 0.443-0.33 0.293-0.543 0.691-0.645 1.193-0.014 0.071-0.025 0.146-0.034 0.225-7e-3 0.076-0.011 0.146-0.011 0.21zm2.656 7.039h-0.862c-0.22 0.015-0.3-0.053-0.24-0.202l0.246-0.897h1.059l0.172-0.63h-1.058l0.166-0.608h1.087l0.172-0.629h-2.704l-0.17 0.629h0.646l-0.165 0.606h-0.677l-0.171 0.632h0.676l-0.314 1.146c-0.098 0.36 9e-3 0.54 0.324 0.54h1.655zm4.298-1.574h-0.732l-0.07 0.247c0 0.074-0.059 0.113-0.178 0.113h-0.235l0.018-0.381h-0.883l-0.066 1.752c-4e-3 0.299 0.143 0.439 0.438 0.428h1.058l0.145-0.518h-0.44c-0.195 0-0.29-0.054-0.281-0.156l2e-3 -0.652h0.47c0.356-0.016 0.576-0.172 0.659-0.473zm0.043-0.585 0.654-2.369h-1.712c-0.462 0-0.973 0.383-0.973 0.383l0.041-0.369h-0.905l-1.284 4.738c-0.061 0.227 0.093 0.337 0.466 0.337h0.97l0.141-0.517h-0.382c-0.099 0-0.135-0.047-0.109-0.135l0.454-1.664h1.939c0.413 1e-3 0.646-0.132 0.7-0.404zm3.647 2.455 0.189-0.674h-0.201l0.966-3.396h0.2l0.203-0.719h-1.278c-0.382 0-0.909 0.265-0.909 0.265l0.045-0.265h-1.034l-0.204 0.719h0.199l-0.966 3.396h-0.198l-0.191 0.674h1.977l-0.084 0.292h1.001l0.084-0.292zm4.267-3.529h-3.15l-0.187 0.652h1.089l-0.174 0.605h-1.087l-0.188 0.65h1.004l-0.777 1.124c-0.087 0.104-0.188 0.157-0.305 0.157h-0.284l-0.181 0.63h0.918c0.242 0.016 0.425-0.082 0.541-0.292l0.496-0.743 0.146 0.696c0.014 0.227 0.174 0.33 0.484 0.314h0.601l0.179-0.63h-0.17c-0.115 0-0.182-0.036-0.197-0.112l-0.127-0.766h-0.543l0.252-0.381h1.115l0.188-0.65h-1.002l0.173-0.606h1.002zm2.812-5.797h-0.904l-0.894 2.084-0.051-2.084h-0.475l-0.565 8e-3 0.27 3.322c-0.227 0.452-0.624 1.47-1.357 1.695l-0.076 0.529c0.873 0.032 1.234-0.4 1.418-0.587 0.183-0.188 0.494-0.592 0.818-1.286z" fill="#fff"/>















</svg>
