<?xml version="1.0" encoding="UTF-8"?>
<svg width="438.21" height="111.08" version="1.1" viewBox="0 0 438.21 111.08" xmlns="http://www.w3.org/2000/svg"><g transform="translate(-22.661 -36.613)" fill-rule="evenodd"><path d="m80.789 114.64c-17.797-40.34-30.846-78.026-30.846-78.026h-27.282s16.605 48.37 47.45 108.86h21.356c30.845-60.489 47.449-108.86 47.449-108.86h-27.282s-13.048 37.686-30.845 78.026" fill="#fefefe"/><path d="m423.44 76.409c-15.423 0-16.607 16.608-16.607 16.608h33.212s-1.1845-16.608-16.604-16.608m36.772 33.214h-53.379s1.1844 17.796 24.911 17.796c11.86 0 23.723-3.5624 23.723-3.5624l2.3739 18.979s-11.862 4.7478-28.471 4.7478c-23.724 0-45.076-11.864-45.076-45.077 0-26.097 16.608-42.704 40.332-42.704 35.586 0 37.956 35.586 35.586 49.821m-181.51-28.028 3.6733-19.586s-28.362-8.606-51.414 7.3426v78.344h24.482v-63.654c9.7925-7.3416 23.259-2.4459 23.259-2.4459m-102.05-5.1851c-15.42 0-16.605 16.608-16.605 16.608h33.213s-1.1844-16.608-16.607-16.608m36.772 33.214h-53.377s1.1855 17.796 24.91 17.796c11.86 0 23.723-3.5624 23.723-3.5624l2.3739 18.979s-11.864 4.7478-28.471 4.7478c-23.724 0-45.077-11.864-45.077-45.077 0-26.097 16.608-42.704 40.332-42.704 35.586 0 37.957 35.586 35.586 49.821m125.02 8.1295c-12.431-29.837-18.644-57.936-18.644-57.936l-24.857 3e-3s12.43 47.987 33.562 87.749h19.879c21.133-39.762 33.563-87.742 33.563-87.742h-24.858s-6.2131 28.089-18.644 57.926" fill="#fff"/></g></svg>
