<?xml version="1.0" encoding="UTF-8"?>
<svg width="145.02" height="64.553" version="1.1" viewBox="0 0 145.02 64.553" xmlns="http://www.w3.org/2000/svg"><g transform="translate(-24.35 -35.489)" fill="#fff"><path d="m96.154 36.316-9.689 45.294h-11.719l9.689-45.294zm49.297 29.247 6.1704-17.009 3.5445 17.009zm13.081 16.047h10.834l-9.4658-45.294h-9.9964c-2.2546 0-4.1491 1.3083-4.9899 3.3204l-17.584 41.974h12.306l2.4408-6.7658h15.034zm-30.59-14.788c0.0491-11.952-16.526-12.615-16.418-17.956 0.0398-1.6232 1.5861-3.3519 4.9713-3.7936 1.6769-0.21667 6.3093-0.38982 11.557 2.0278l2.0528-9.6103c-2.8195-1.0195-6.4473-2.0009-10.96-2.0009-11.584 0-19.734 6.1528-19.798 14.971-0.07593 6.5223 5.8204 10.158 10.255 12.33 4.5676 2.2185 6.0991 3.6445 6.0778 5.6269-0.0324 3.0389-3.6473 4.3843-7.0084 4.4343-5.8936 0.09352-9.3103-1.5926-12.035-2.8621l-2.1269 9.9288c2.7417 1.2565 7.7945 2.3482 13.028 2.4037 12.315 0 20.37-6.0825 20.406-15.499m-48.533-30.506-18.985 45.294h-12.387l-9.3436-36.148c-0.56575-2.2213-1.0583-3.0389-2.7824-3.9778-2.8176-1.5306-7.4704-2.9621-11.56-3.8528l0.27593-1.3148h19.942c2.538 0 4.8232 1.6898 5.4038 4.6158l4.9371 26.212 12.188-30.828z" clip-path="url(#clipPath905)"/><path d="m111.15 94.077h-4.7612v4.4315h5.326v1.3324h-6.9306v-12.295h6.6575v1.3324h-5.0528v3.8843h4.7612z" clip-path="url(#clipPath965)"/><path d="m114.18 86.891h1.6046v12.95h-1.6046z" clip-path="url(#clipPath850)"/><path d="m124.53 94.569c0.0185-1.0028-0.41945-2.5898-2.225-2.5898-1.6417 0-2.3352 1.4778-2.463 2.5898zm-4.7056 1.1491c0.0361 2.1713 1.4046 3.0648 3.0269 3.0648 1.15 0 1.8611-0.20093 2.4454-0.45556l0.29167 1.1491c-0.56574 0.25463-1.55 0.56482-2.9556 0.56482-2.7167 0-4.3398-1.8056-4.3398-4.4686s1.5676-4.7426 4.1398-4.7426c2.9 0 3.6482 2.5176 3.6482 4.1408 0 0.32778-0.0185 0.56482-0.0556 0.74723z" clip-path="url(#clipPath890)"/><path d="m134.82 99.531c-0.41945 0.20093-1.35 0.51111-2.5352 0.51111-2.663 0-4.3954-1.8056-4.3954-4.5056 0-2.7176 1.8593-4.7056 4.7417-4.7056 0.94816 0 1.787 0.23611 2.225 0.47408l-0.36389 1.2222c-0.38426-0.20093-0.98612-0.42037-1.8611-0.42037-2.025 0-3.1186 1.5139-3.1186 3.3389 0 2.0426 1.313 3.301 3.0639 3.301 0.91205 0 1.5139-0.21852 1.9695-0.41945z" clip-path="url(#clipPath920)"/><path d="m139.32 88.897v2.1158h2.2972v1.2213h-2.2972v4.7612c0 1.0954 0.31019 1.7148 1.2037 1.7148 0.43705 0 0.69353-0.03611 0.93057-0.11019l0.0731 1.2232c-0.31019 0.10926-0.80279 0.21852-1.4232 0.21852-0.74816 0-1.35-0.25556-1.7324-0.67408-0.43796-0.49352-0.62037-1.2769-0.62037-2.3167v-4.8167h-1.3685v-1.2213h1.3685v-1.6417z" clip-path="url(#clipPath980)"/><path d="m143.86 93.767c0-1.0398-0.0194-1.9334-0.0731-2.7547h1.4046l0.0731 1.7509h0.0537c0.40185-1.1852 1.3861-1.9334 2.4621-1.9334 0.16481 0 0.29259 0.01852 0.43889 0.03611v1.5148c-0.16482-0.03704-0.32778-0.03704-0.54815-0.03704-1.1296 0-1.9334 0.8389-2.1519 2.0435-0.0361 0.21852-0.0546 0.49167-0.0546 0.74816v4.7056h-1.6046z" clip-path="url(#clipPath950)"/><path d="m151.1 95.445c0 1.9334 1.0944 3.3926 2.663 3.3926 1.5324 0 2.6806-1.4417 2.6806-3.4297 0-1.4954-0.74723-3.375-2.6445-3.375-1.8778 0-2.6991 1.7519-2.6991 3.4121m6.9862-0.09167c0 3.2648-2.2806 4.688-4.3963 4.688-2.3713 0-4.2306-1.7519-4.2306-4.5417 0-2.9371 1.951-4.6695 4.3769-4.6695 2.5352 0 4.25 1.8417 4.25 4.5232" clip-path="url(#clipPath935)"/><path d="m160.54 93.402c0-0.92964-0.0194-1.6593-0.0731-2.3889h1.4222l0.0917 1.4593h0.0361c0.43796-0.8213 1.4593-1.6417 2.9185-1.6417 1.2213 0 3.1186 0.72964 3.1186 3.7565v5.2538h-1.6046v-5.0889c0-1.4222-0.5287-2.6084-2.0426-2.6084-1.0398 0-1.8611 0.74816-2.1519 1.6417-0.0741 0.20093-0.11019 0.47408-0.11019 0.74816v5.3075h-1.6046z" clip-path="url(#clipPath875)"/></g><defs><clipPath id="clipPath850"><path d="m-183.89-303.86h566.67v733.34h-566.67z" stroke-width=".92593"/></clipPath><clipPath id="clipPath875"><path d="m-183.89-303.86h566.67v733.34h-566.67z" stroke-width=".92593"/></clipPath><clipPath id="clipPath890"><path d="m-183.89-303.86h566.67v733.34h-566.67z" stroke-width=".92593"/></clipPath><clipPath id="clipPath905"><path d="m-183.89-303.86h566.67v733.34h-566.67z" stroke-width=".92593"/></clipPath><clipPath id="clipPath920"><path d="m-183.89-303.86h566.67v733.34h-566.67z" stroke-width=".92593"/></clipPath><clipPath id="clipPath935"><path d="m-183.89-303.86h566.67v733.34h-566.67z" stroke-width=".92593"/></clipPath><clipPath id="clipPath950"><path d="m-183.89-303.86h566.67v733.34h-566.67z" stroke-width=".92593"/></clipPath><clipPath id="clipPath965"><path d="m-183.89-303.86h566.67v733.34h-566.67z" stroke-width=".92593"/></clipPath><clipPath id="clipPath980"><path d="m-183.89-303.86h566.67v733.34h-566.67z" stroke-width=".92593"/></clipPath></defs></svg>
